<svg xmlns="http://www.w3.org/2000/svg" version="1.1" xmlns:xlink="http://www.w3.org/1999/xlink" xmlns:svgjs="http://svgjs.dev/svgjs" width="2000" height="1247" viewBox="0 0 2000 1247"><g transform="matrix(1,0,0,1,-1.2121212121212466,0.504858299595071)"><svg viewBox="0 0 396 247" data-background-color="#ffffff" preserveAspectRatio="xMidYMid meet" height="1247" width="2000" xmlns="http://www.w3.org/2000/svg" xmlns:xlink="http://www.w3.org/1999/xlink"><g id="tight-bounds" transform="matrix(1,0,0,1,0.2400000000000091,-0.09999999999999432)"><svg viewBox="0 0 395.52 247.2" height="247.2" width="395.52"><g><svg></svg></g><g><svg viewBox="0 0 395.52 247.2" height="247.2" width="395.52"><mask id="1a8c8695-d990-45f7-b51a-0ab1e4038f33"><rect width="395.52" height="247.2" fill="white"></rect><g transform="matrix(1,0,0,1,130.7715671641791,37.08)" id="clone"><svg viewBox="0 0 133.9768656716418 173.04" height="173.04" width="133.9768656716418"><g><svg viewBox="0 0 133.9768656716418 173.04" height="173.04" width="133.9768656716418"><g><svg viewBox="0 0 133.9768656716418 173.04" height="173.04" width="133.9768656716418"><g><svg viewBox="0 0 133.9768656716418 173.04" height="173.04" width="133.9768656716418"><g id="SvgjsG1265"><svg viewBox="0 0 133.9768656716418 173.04" height="173.04" width="133.9768656716418" id="SvgjsSvg1264"><g><svg viewBox="0 0 133.9768656716418 173.04" height="173.04" width="133.9768656716418"><g transform="matrix(1,0,0,1,0,0)"><svg width="133.9768656716418" viewBox="-0.8500000000000001 -24.4 21.75 27.799999999999997" height="173.04" data-palette-color="#ff0000"><path d="M9.85 0.4L9.85 0.4Q7.65 0.4 5.58-0.38 3.5-1.15 2.15-2.7L2.15-2.7 4.1-5.4Q5.4-4.15 6.78-3.53 8.15-2.9 9.5-2.9L9.5-2.9Q10.5-2.9 11.35-3.15 12.2-3.4 12.73-3.98 13.25-4.55 13.25-5.55L13.25-5.55Q13.25-6.65 12.53-7.3 11.8-7.95 10.68-8.35 9.55-8.75 8.3-9.1L8.3-9.1Q5.75-9.95 4.4-11.45 3.05-12.95 3.05-15.1L3.05-15.1Q3.05-16.75 3.88-18.18 4.7-19.6 6.33-20.5 7.95-21.4 10.35-21.4L10.35-21.4Q12.5-21.4 14.2-20.88 15.9-20.35 17.4-19.15L17.4-19.15 15.55-16.25Q14.65-17.2 13.4-17.65 12.15-18.1 11.15-18.15L11.15-18.15Q10.3-18.2 9.53-17.9 8.75-17.6 8.25-17.05 7.75-16.5 7.75-15.75L7.75-15.75Q7.75-14.7 8.45-14.05 9.15-13.4 10.28-13.03 11.4-12.65 12.5-12.25L12.5-12.25Q14.05-11.8 15.25-11.05 16.45-10.3 17.18-9.2 17.9-8.1 17.9-6.45L17.9-6.45Q17.9-4.6 17.03-3.03 16.15-1.45 14.38-0.53 12.6 0.4 9.85 0.4Z" opacity="1" transform="matrix(1,0,0,1,0,0)" fill="black" class="wordmark-text-0" id="SvgjsPath1263" stroke-width="5" stroke="black" stroke-linejoin="round"></path></svg></g></svg></g></svg></g></svg></g><g></g></svg></g></svg></g></svg></g></mask><g mask="url(#1a8c8695-d990-45f7-b51a-0ab1e4038f33)"><g><path d="M262.258 36.71l-10.421 20.843c-6.947-3.568-14.552-6.666-22.814-9.295-8.262-2.629-16.336-3.943-24.222-3.943v0c-10.891 0-19.565 2.535-26.024 7.605-6.497 5.07-9.745 11.829-9.745 20.279v0c0 6.384 2.065 11.773 6.196 16.166 4.131 4.431 9.576 8.243 16.336 11.435 6.76 3.192 13.801 6.196 21.124 9.013v0c6.384 2.441 12.674 5.164 18.87 8.168 6.196 3.004 11.792 6.76 16.787 11.266 4.957 4.506 8.9 10.046 11.829 16.618 2.892 6.572 4.337 14.74 4.337 24.503v0c0 10.703-2.666 20.467-7.998 29.292-5.37 8.825-13.031 15.772-22.983 20.842-9.952 5.07-21.781 7.605-35.488 7.605v0c-9.013 0-17.594-1.033-25.743-3.098-8.187-2.065-15.754-4.751-22.701-8.055-6.947-3.267-13.144-6.685-18.589-10.253v0l12.111-21.405c4.506 3.192 9.67 6.234 15.49 9.125 5.821 2.929 11.923 5.276 18.308 7.042 6.384 1.803 12.58 2.704 18.589 2.704v0c6.384 0 12.731-1.183 19.039-3.549 6.271-2.328 11.473-5.933 15.604-10.816 4.131-4.882 6.196-11.36 6.196-19.434v0c0-6.947-1.821-12.731-5.464-17.349-3.68-4.582-8.525-8.525-14.533-11.83-6.009-3.267-12.393-6.215-19.152-8.844v0c-6.384-2.441-12.862-5.126-19.434-8.055-6.572-2.892-12.674-6.459-18.308-10.703-5.633-4.206-10.139-9.407-13.519-15.603-3.38-6.196-5.07-13.707-5.07-22.532v0c0-10.703 2.591-20.054 7.774-28.053 5.145-7.961 12.224-14.233 21.236-18.814 9.013-4.619 19.34-7.116 30.982-7.492v0c13.144 0 24.748 1.596 34.812 4.788 10.027 3.192 18.889 7.135 26.588 11.829z" fill="#ff0000" fill-rule="nonzero" stroke="none" stroke-width="1" stroke-linecap="butt" stroke-linejoin="miter" stroke-miterlimit="10" stroke-dasharray="" stroke-dashoffset="0" font-family="none" font-weight="none" font-size="none" text-anchor="none" style="mix-blend-mode: normal" data-fill-palette-color="tertiary"></path></g></g><g transform="matrix(1,0,0,1,130.7715671641791,37.08)"><svg viewBox="0 0 133.9768656716418 173.04" height="173.04" width="133.9768656716418"><g><svg viewBox="0 0 133.9768656716418 173.04" height="173.04" width="133.9768656716418"><g><svg viewBox="0 0 133.9768656716418 173.04" height="173.04" width="133.9768656716418"><g><svg viewBox="0 0 133.9768656716418 173.04" height="173.04" width="133.9768656716418"><g id="textblocktransform"><svg viewBox="0 0 133.9768656716418 173.04" height="173.04" width="133.9768656716418" id="textblock"><g><svg viewBox="0 0 133.9768656716418 173.04" height="173.04" width="133.9768656716418"><g transform="matrix(1,0,0,1,0,0)"><svg width="133.9768656716418" viewBox="-0.8500000000000001 -24.4 21.75 27.799999999999997" height="173.04" data-palette-color="#ff0000"><path d="M9.85 0.4L9.85 0.4Q7.65 0.4 5.58-0.38 3.5-1.15 2.15-2.7L2.15-2.7 4.1-5.4Q5.4-4.15 6.78-3.53 8.15-2.9 9.5-2.9L9.5-2.9Q10.5-2.9 11.35-3.15 12.2-3.4 12.73-3.98 13.25-4.55 13.25-5.55L13.25-5.55Q13.25-6.65 12.53-7.3 11.8-7.95 10.68-8.35 9.55-8.75 8.3-9.1L8.3-9.1Q5.75-9.95 4.4-11.45 3.05-12.95 3.05-15.1L3.05-15.1Q3.05-16.75 3.88-18.18 4.7-19.6 6.33-20.5 7.95-21.4 10.35-21.4L10.35-21.4Q12.5-21.4 14.2-20.88 15.9-20.35 17.4-19.15L17.4-19.15 15.55-16.25Q14.65-17.2 13.4-17.65 12.15-18.1 11.15-18.15L11.15-18.15Q10.3-18.2 9.53-17.9 8.75-17.6 8.25-17.05 7.75-16.5 7.75-15.75L7.75-15.75Q7.75-14.7 8.45-14.05 9.15-13.4 10.28-13.03 11.4-12.65 12.5-12.25L12.5-12.25Q14.05-11.8 15.25-11.05 16.45-10.3 17.18-9.2 17.9-8.1 17.9-6.45L17.9-6.45Q17.9-4.6 17.03-3.03 16.15-1.45 14.38-0.53 12.6 0.4 9.85 0.4Z" opacity="1" transform="matrix(1,0,0,1,0,0)" fill="#ff0000" class="wordmark-text-0" data-fill-palette-color="primary" id="text-0"></path></svg></g></svg></g></svg></g></svg></g><g></g></svg></g></svg></g></svg></g></svg></g><defs></defs></svg><rect width="395.52" height="247.2" fill="none" stroke="none" visibility="hidden"></rect></g></svg></g></svg>